<?xml version="1.0" standalone="no"?>
<!DOCTYPE svg PUBLIC "-//W3C//DTD SVG 20010904//EN"
 "http://www.w3.org/TR/2001/REC-SVG-20010904/DTD/svg10.dtd">
<svg version="1.0" xmlns="http://www.w3.org/2000/svg"
 width="700.000000pt" height="700.000000pt" viewBox="0 0 700.000000 700.000000"
 preserveAspectRatio="xMidYMid meet">
<metadata>
Created by potrace 1.14, written by Peter Selinger 2001-2017
</metadata>
<g transform="translate(0.000000,700.000000) scale(0.100000,-0.100000)"
fill="#000000" stroke="none">
<path d="M6135 6970 c-156 -38 -326 -79 -351 -84 -10 -3 -77 -19 -149 -36 -71
-17 -186 -44 -255 -60 -69 -16 -192 -46 -275 -66 -82 -19 -161 -38 -175 -40
-14 -3 -79 -19 -145 -35 -66 -17 -165 -41 -220 -54 -55 -12 -161 -37 -235 -55
-74 -17 -142 -33 -150 -35 -33 -7 -330 -78 -405 -97 -44 -11 -98 -24 -120 -29
-58 -12 -73 -16 -145 -34 -36 -9 -78 -18 -95 -21 -16 -3 -61 -14 -100 -24 -38
-11 -81 -21 -95 -24 -14 -2 -81 -18 -150 -35 -69 -16 -192 -46 -275 -65 -82
-20 -226 -54 -320 -76 -93 -23 -181 -43 -194 -46 -24 -5 -259 -61 -691 -164
-185 -44 -319 -76 -360 -85 -8 -2 -159 -37 -335 -79 -176 -42 -349 -83 -385
-91 -36 -9 -83 -20 -105 -26 -22 -6 -43 -10 -47 -10 -5 1 -34 -9 -65 -20 -181
-67 -300 -246 -288 -434 2 -27 65 -293 141 -590 l137 -540 2 -1675 c1 -921 5
-1691 8 -1710 6 -32 9 -45 21 -98 44 -189 227 -397 418 -473 147 -59 -106 -54
2908 -54 l2755 0 75 23 c274 85 465 300 514 577 10 55 12 484 12 1872 l-1
1802 -21 27 c-11 15 -33 37 -48 48 l-27 21 -2555 1 c-1404 0 -2557 3 -2561 7
-3 4 -3 7 0 7 6 0 231 50 392 86 11 3 30 7 42 10 12 2 69 15 125 29 57 13 118
27 137 30 19 3 37 8 41 10 4 2 42 12 86 21 43 9 87 18 97 20 9 2 26 6 38 9 11
2 28 6 37 9 9 3 32 8 51 11 19 3 37 8 41 10 4 2 22 7 41 10 19 3 99 21 179 40
80 18 156 36 170 39 26 5 76 16 470 106 124 28 236 53 250 56 14 3 39 9 55 14
17 4 66 16 110 25 44 9 125 27 180 40 55 13 111 26 125 29 21 4 311 69 363 82
26 6 9 2 632 143 319 72 618 140 665 152 47 11 94 21 105 23 11 3 43 10 70 16
28 6 57 13 65 15 8 2 74 17 147 34 72 17 143 32 157 35 15 3 34 7 44 10 9 3
28 7 42 10 14 2 45 9 70 16 25 7 56 14 70 16 31 6 67 32 94 67 29 39 24 100
-24 277 -42 159 -108 407 -161 610 -76 290 -114 359 -245 436 -116 69 -229 78
-409 34z m238 -274 c72 -30 73 -33 172 -416 37 -140 80 -304 96 -365 16 -60
25 -112 21 -116 -4 -3 -90 -25 -192 -47 -102 -23 -234 -53 -295 -67 l-109 -25
-398 397 c-218 218 -395 400 -393 404 3 4 17 9 32 11 29 5 723 170 893 212
114 29 131 30 173 12z m-1040 -714 l398 -399 -123 -27 c-68 -15 -134 -29 -148
-32 -14 -3 -41 -9 -61 -14 -42 -12 -581 -134 -688 -156 l-74 -16 -393 393
-393 394 67 17 c37 10 76 20 87 22 37 8 159 37 260 61 222 54 351 84 378 89
35 8 53 12 167 40 52 13 102 25 110 25 8 1 194 -178 413 -397z m-1041 -722
c-6 -5 -99 -27 -231 -55 -9 -2 -45 -10 -81 -19 -36 -8 -76 -17 -90 -20 -14 -2
-97 -21 -185 -41 -88 -21 -234 -55 -325 -75 l-165 -39 -387 387 c-213 213
-384 389 -380 392 4 4 117 32 252 64 135 31 270 63 300 71 30 8 145 36 255 61
110 26 214 50 230 54 29 7 44 -7 422 -384 216 -215 389 -393 385 -396z m-1805
68 c211 -211 383 -386 383 -389 0 -4 -110 -32 -175 -45 -5 -1 -102 -23 -215
-49 -113 -26 -215 -49 -226 -51 -12 -2 -107 -24 -210 -48 -104 -24 -205 -46
-224 -50 -35 -6 -35 -6 -418 377 l-383 383 113 26 c62 15 210 50 328 78 118
28 226 54 240 56 14 3 104 25 200 49 96 24 182 44 189 44 8 1 187 -171 398
-381z m-1416 -337 c413 -413 388 -380 305 -397 -10 -2 -80 -17 -155 -34 -75
-17 -215 -49 -311 -71 -96 -22 -204 -47 -239 -55 -67 -16 -86 -21 -134 -29
-16 -3 -34 -7 -40 -8 -9 -2 -186 663 -201 757 -10 59 44 138 103 153 14 4 73
19 131 33 58 15 118 28 134 29 25 1 76 -46 407 -378z m284 -913 c0 -4 -97
-201 -215 -438 l-215 -430 -172 0 c-132 0 -173 3 -173 13 -1 15 -1 658 0 777
l0 85 388 0 c213 0 387 -3 387 -7z m1456 -3 c1 -6 -95 -202 -212 -437 l-214
-428 -567 0 -567 0 217 433 c119 237 219 434 223 437 14 10 1119 5 1120 -5z
m1468 5 c0 -3 -98 -198 -217 -435 l-217 -430 -567 -3 -568 -2 218 435 c121
243 223 436 232 437 26 5 1120 3 1119 -2z m1455 -5 c-3 -5 -100 -201 -217
-435 l-212 -425 -568 -3 -567 -2 216 432 c119 238 220 435 224 438 16 10 1128
5 1124 -5z m971 -428 l1 -437 -538 0 -538 0 38 78 c22 42 119 237 216 432 97
195 181 357 186 360 4 3 149 5 322 5 l313 0 0 -438z m1 -1842 c0 -889 -3
-1122 -13 -1169 -37 -163 -159 -288 -325 -331 -43 -12 -500 -14 -2747 -12
l-2696 2 -60 24 c-140 55 -243 174 -275 316 -9 40 -15 1315 -10 2206 l0 76
3063 -1 3062 -1 1 -1110z"/>
</g>
</svg>
